<?xml version="1.0" encoding="iso-8859-1"?>
<!-- Generator: Adobe Illustrator 19.0.0, SVG Export Plug-In . SVG Version: 6.00 Build 0)  -->
<svg version="1.1" id="Capa_1" xmlns="http://www.w3.org/2000/svg" xmlns:xlink="http://www.w3.org/1999/xlink" x="0px" y="0px"
	 viewBox="0 0 444.758 444.758" style="enable-background:new 0 0 444.758 444.758;" xml:space="preserve">
<g>
	<g>
		<path d="M428.384,27.69L428.384,27.69c-21.886-21.832-57.314-21.832-79.2,0l-16.968,16.968L66.345,310.53
			c-15.552,15.69-15.44,41.016,0.249,56.568c15.592,15.455,40.727,15.455,56.319,0l265.872-265.872l-11.312-11.328l-265.88,265.888
			c-9.208,9.534-24.402,9.798-33.936,0.59s-9.798-24.402-0.59-33.936c0.193-0.2,0.39-0.396,0.59-0.59L343.544,55.97l16.968-16.968
			c15.621-15.623,40.949-15.625,56.572-0.004c15.623,15.621,15.625,40.949,0.004,56.572l-16.992,16.968L111.592,401.042
			c-21.87,21.87-57.33,21.87-79.2,0s-21.87-57.33,0-79.2L320.904,33.346l-11.32-11.312L21.088,310.53
			c-28.118,28.118-28.118,73.706,0,101.824s73.706,28.118,101.824,0l288.496-288.496l16.976-16.976
			C450.216,84.998,450.216,49.573,428.384,27.69z"/>
	</g>
</g>
<g>
</g>
<g>
</g>
<g>
</g>
<g>
</g>
<g>
</g>
<g>
</g>
<g>
</g>
<g>
</g>
<g>
</g>
<g>
</g>
<g>
</g>
<g>
</g>
<g>
</g>
<g>
</g>
<g>
</g>
</svg>
